<svg xmlns="http://www.w3.org/2000/svg" xmlns:xlink="http://www.w3.org/1999/xlink" id="Layer_1" width="152" height="156" x="0" y="0" enable-background="new 0 0 152 156" version="1.1" viewBox="0 0 152 156" xml:space="preserve"><path fill="none" d="M152,139.888c0,6.689-5.423,12.112-12.112,12.112H12.112C5.423,152,0,146.577,0,139.888V12.112	C0,5.423,5.423,0,12.112,0h127.775C146.577,0,152,5.423,152,12.112V139.888z"/><linearGradient id="SVGID_1_" x1="4" x2="149" y1="80.5" y2="80.5" gradientUnits="userSpaceOnUse"><stop offset="0" stop-color="#F8F07D"/><stop offset=".034" stop-color="#F8E977"/><stop offset=".191" stop-color="#F9D461"/><stop offset=".357" stop-color="#F9C450"/><stop offset=".536" stop-color="#FBB945"/><stop offset=".736" stop-color="#FBB23E"/><stop offset="1" stop-color="#FBB03C"/></linearGradient><path fill="url(#SVGID_1_)" d="M149,143.888c0,6.689-5.423,12.112-12.112,12.112H16.112C9.423,156,4,150.577,4,143.888V17.112	C4,10.423,9.423,5,16.112,5h120.775C143.577,5,149,10.423,149,17.112V143.888z"/><path fill="#9A6733" d="M139,134.475c0,5.812-4.712,10.525-10.525,10.525H23.525C17.712,145,13,140.287,13,134.475V24.525	C13,18.713,17.712,14,23.525,14h104.949C134.288,14,139,18.713,139,24.525V134.475z"/><linearGradient id="SVGID_2_" x1="22" x2="129" y1="78.5" y2="78.5" gradientUnits="userSpaceOnUse"><stop offset="0" stop-color="#F8F07D"/><stop offset=".034" stop-color="#F8E977"/><stop offset=".191" stop-color="#F9D461"/><stop offset=".357" stop-color="#F9C450"/><stop offset=".536" stop-color="#FBB945"/><stop offset=".736" stop-color="#FBB23E"/><stop offset="1" stop-color="#FBB03C"/></linearGradient><path fill="url(#SVGID_2_)" d="M129,125.062c0,4.937-4.002,8.938-8.938,8.938H30.938c-4.937,0-8.938-4.002-8.938-8.938V31.938	C22,27.002,26.002,23,30.938,23h89.123c4.937,0,8.938,4.002,8.938,8.938V125.062z"/></svg>